<svg xmlns="http://www.w3.org/2000/svg" width="27" height="29" viewBox="0 0 27 29"><g transform="translate(-954 -71)"><rect width="27" height="27" transform="translate(954 72)" fill="#fff" opacity="0"/><g transform="translate(956 72)"><path d="M30,31.642V28.595A6.048,6.048,0,0,0,24,22.5H12a6.048,6.048,0,0,0-6,6.095v3.047" transform="translate(-6 -4.642)" fill="none" stroke="#373f50" stroke-linecap="round" stroke-linejoin="round" stroke-width="2"/><path d="M23.811,10.595a6,6,0,0,1-5.906,6.095A6,6,0,0,1,12,10.595,6,6,0,0,1,17.906,4.5,6,6,0,0,1,23.811,10.595Z" transform="translate(-5.905 -4.5)" fill="none" stroke="#373f50" stroke-linecap="round" stroke-linejoin="round" stroke-width="2"/></g></g></svg>