<svg xmlns="http://www.w3.org/2000/svg" width="27" height="30" viewBox="0 0 27 30"><g transform="translate(-1001 -70)"><rect width="27" height="27" transform="translate(1001 71)" fill="#fff" opacity="0"/><g transform="translate(1004 71)"><g transform="translate(-4.5 -2.018)" fill="none" stroke-linecap="round" stroke-linejoin="round"><path d="M6.9,9,4.5,26.516a2.454,2.454,0,0,0,2.4,2.5H23.727a2.454,2.454,0,0,0,2.4-2.5L23.727,9Z" stroke="none"/><path d="M 6.903373718261719 9.000001907348633 L 4.499994277954102 26.51592254638672 C 4.499994277954102 27.89789199829102 5.576034545898438 29.01820182800293 6.903373718261719 29.01820182800293 L 23.72702407836914 29.01820182800293 C 25.05437469482422 29.01820182800293 26.13040542602539 27.89789199829102 26.13040542602539 26.51592254638672 L 23.72702407836914 9.000001907348633 L 6.903373718261719 9.000001907348633 M 6.903373718261719 7.000001907348633 L 23.72702407836914 7.000001907348633 C 24.72653579711914 7.000001907348633 25.57258415222168 7.737892150878906 25.70845413208008 8.728122711181641 L 28.11183547973633 26.24404144287109 C 28.12420463562012 26.33414077758789 28.13040542602539 26.42498207092285 28.13040542602539 26.51592254638672 C 28.13040542602539 28.99849319458008 26.15505409240723 31.01820182800293 23.72702407836914 31.01820182800293 L 6.903373718261719 31.01820182800293 C 4.475343704223633 31.01820182800293 2.499994277954102 28.99849319458008 2.499994277954102 26.51592254638672 C 2.499994277954102 26.42498207092285 2.506195068359375 26.33414077758789 2.518564224243164 26.24404144287109 L 4.921945571899414 8.728122711181641 C 5.057815551757813 7.737892150878906 5.903863906860352 7.000001907348633 6.903373718261719 7.000001907348633 Z" stroke="none" fill="#373f50"/></g><path d="M21.8,19.9a4.9,4.9,0,0,0-9.8,0" transform="translate(-6.085 -15)" fill="none" stroke="#373f50" stroke-linecap="round" stroke-linejoin="round" stroke-width="2"/></g></g></svg>