<svg xmlns="http://www.w3.org/2000/svg" width="244.843" height="261.736" viewBox="0 0 244.843 261.736"><g transform="translate(-1018 -139.482)"><path d="M4026.265,2841.2s-9.181-64.974,48.73-41.668,75.567,120.06,56.5,144.779-109.467,29.662-120.061,52.968-4.237,49.437-27.543,57.205-98.167-10.594-82.63-53.674,38.843-77.686,79.1-88.986S4026.265,2841.2,4026.265,2841.2Z" transform="translate(-2881.157 -2655)" fill="#f28482" opacity="0.15"/><path d="M167.24,54.28a10.74,10.74,0,0,0-10.69-9.63H26.14a10.74,10.74,0,0,0-10.69,9.63L3.33,170.91A10.74,10.74,0,0,0,14,182.77H168.68a10.74,10.74,0,0,0,10.69-11.86Z" transform="translate(1053.571 168.005)" fill="#f28482"/><rect width="148.38" height="8.55" transform="translate(1071.006 215.715)" fill="#ffacb7" opacity="0.5"/><rect width="172.88" height="8.55" transform="translate(1058.756 339.205)" fill="#ffacb7"/><path d="M168.68,186H14A14,14,0,0,1,.07,170.57L12.21,53.94A14,14,0,0,1,26.14,41.38H156.55a14,14,0,0,1,13.94,12.56l3,29.2a3.27,3.27,0,1,1-6.5.68l-3-29.2a7.46,7.46,0,0,0-7.43-6.7H26.14a7.46,7.46,0,0,0-7.43,6.7L6.58,171.25A7.48,7.48,0,0,0,14,179.5H168.68a7.47,7.47,0,0,0,7.43-8.25l-4.24-40.8a3.27,3.27,0,0,1,6.5-.68l4.24,40.8A14,14,0,0,1,168.68,186Z" transform="translate(1053.846 168.005)" fill="#373f50"/><path d="M137.91,53.1a3.27,3.27,0,0,1-3.27-3.27,43.295,43.295,0,1,0-86.59,0,3.27,3.27,0,1,1-6.54,0,49.835,49.835,0,1,1,99.67,0A3.27,3.27,0,0,1,137.91,53.1Z" transform="translate(1053.846 168.005)" fill="#373f50"/><path d="M77.475,19.807a1.22,1.22,0,0,1-1.22-1.22,16.152,16.152,0,0,0-32.3,0,1.22,1.22,0,0,1-2.44,0,18.592,18.592,0,0,1,37.185,0A1.22,1.22,0,0,1,77.475,19.807Z" transform="translate(1115.342 243.663)" fill="#373f50" stroke="#373f50" stroke-width="3"/><path d="M77.475,19.807a1.22,1.22,0,0,1-1.22-1.22,16.152,16.152,0,0,0-32.3,0,1.22,1.22,0,0,1-2.44,0,18.592,18.592,0,0,1,37.185,0A1.22,1.22,0,0,1,77.475,19.807Z" transform="translate(1055.342 243.663)" fill="#373f50" stroke="#373f50" stroke-width="3"/><path d="M88.508,0a1.594,1.594,0,0,0-1.594,1.594,21.108,21.108,0,0,1-42.215,0,1.594,1.594,0,0,0-3.188,0,24.3,24.3,0,0,0,48.592,0A1.594,1.594,0,0,0,88.508,0Z" transform="translate(1079.833 299.663)" fill="#373f50" stroke="#373f50" stroke-width="3"/><path d="M173.17,118.19a3.27,3.27,0,0,1-3.25-2.93l-.61-5.94a3.27,3.27,0,1,1,6.5-.67l.61,5.94a3.27,3.27,0,0,1-2.92,3.59Z" transform="translate(1053.846 168.005)" fill="#373f50"/><path d="M171.49,101.92A3.27,3.27,0,0,1,168.24,99v-.25a3.27,3.27,0,1,1,6.5-.67v.25a3.27,3.27,0,0,1-2.92,3.59Z" transform="translate(1053.846 168.005)" fill="#373f50"/><path d="M23.44,119.64h-.22A2.45,2.45,0,0,1,21,117l.81-9.26a2.454,2.454,0,0,1,4.89.43l-.81,9.26a2.45,2.45,0,0,1-2.45,2.21Z" transform="translate(1053.846 168.005)" fill="#fff0dd"/><path d="M24.94,102.62h-.22a2.45,2.45,0,0,1-2.23-2.66l.44-5a2.454,2.454,0,0,1,4.89.43l-.44,5A2.45,2.45,0,0,1,24.94,102.62Z" transform="translate(1053.846 168.005)" fill="#fff0dd"/><circle cx="2.94" cy="2.94" r="2.94" transform="translate(1073.082 298.981) rotate(-84.97)" fill="#fff0dd" opacity="0.7"/><path d="M0,0" transform="translate(1097.343 277.5)" fill="none" stroke="#707070" stroke-linecap="round" stroke-linejoin="round" stroke-width="1"/><g transform="translate(1028.843 225)" fill="none" stroke="#373f50" stroke-width="4"><circle cx="8" cy="8" r="8" stroke="none"/><circle cx="8" cy="8" r="6" fill="none"/></g><g transform="translate(1246.843 300)" fill="none" stroke="#f6bd60" stroke-width="4"><circle cx="8" cy="8" r="8" stroke="none"/><circle cx="8" cy="8" r="6" fill="none"/></g><circle cx="3.5" cy="3.5" r="3.5" transform="translate(1037.843 254)" fill="#f6bd60"/><circle cx="3.5" cy="3.5" r="3.5" transform="translate(1246.843 274)" fill="#373f50"/></g></svg>