<svg xmlns="http://www.w3.org/2000/svg" xmlns:xlink="http://www.w3.org/1999/xlink" width="79" height="79" viewBox="0 0 79 79"><defs><filter id="a" x="0" y="0" width="79" height="79" filterUnits="userSpaceOnUse"><feOffset dy="3" input="SourceAlpha"/><feGaussianBlur stdDeviation="5" result="b"/><feFlood flood-color="#d5d5d5" flood-opacity="0.2"/><feComposite operator="in" in2="b"/><feComposite in="SourceGraphic"/></filter></defs><g transform="translate(-347 -4558)"><g transform="matrix(1, 0, 0, 1, 347, 4558)" filter="url(#a)"><circle cx="24.5" cy="24.5" r="24.5" transform="translate(15 12)" fill="#fff"/></g><path d="M8.055,3H18.164a5.055,5.055,0,0,1,5.055,5.055V18.164a5.055,5.055,0,0,1-5.055,5.055H8.055A5.055,5.055,0,0,1,3,18.164V8.055A5.055,5.055,0,0,1,8.055,3Z" transform="translate(373.525 4581.781)" fill="none" stroke="#7d879c" stroke-linecap="round" stroke-linejoin="round" stroke-width="2"/><path d="M20.108,15.385A4.044,4.044,0,1,1,16.7,11.979,4.044,4.044,0,0,1,20.108,15.385Z" transform="translate(370.569 4578.868)" fill="none" stroke="#7d879c" stroke-linecap="round" stroke-linejoin="round" stroke-width="2"/><path d="M26.25,9.75h0" transform="translate(365.944 4579.58)" fill="none" stroke="#7d879c" stroke-linecap="round" stroke-linejoin="round" stroke-width="2"/></g></svg>