<svg xmlns="http://www.w3.org/2000/svg" xmlns:xlink="http://www.w3.org/1999/xlink" width="79" height="79" viewBox="0 0 79 79"><defs><filter id="a" x="0" y="0" width="79" height="79" filterUnits="userSpaceOnUse"><feOffset dy="3" input="SourceAlpha"/><feGaussianBlur stdDeviation="5" result="b"/><feFlood flood-color="#d5d5d5" flood-opacity="0.2"/><feComposite operator="in" in2="b"/><feComposite in="SourceGraphic"/></filter></defs><g transform="translate(-217 -4558)"><g transform="matrix(1, 0, 0, 1, 217, 4558)" filter="url(#a)"><circle cx="24.5" cy="24.5" r="24.5" transform="translate(15 12)" fill="#fff"/></g><g transform="translate(247.602 4584.781)"><path d="M28.565,6.033A3.033,3.033,0,1,1,25.533,3,3.033,3.033,0,0,1,28.565,6.033Z" transform="translate(-10.369 -3)" fill="none" stroke="#7d879c" stroke-linecap="round" stroke-linejoin="round" stroke-width="2"/><path d="M10.565,16.533A3.033,3.033,0,1,1,7.533,13.5,3.033,3.033,0,0,1,10.565,16.533Z" transform="translate(-4.5 -6.424)" fill="none" stroke="#7d879c" stroke-linecap="round" stroke-linejoin="round" stroke-width="2"/><path d="M28.565,27.033A3.033,3.033,0,1,1,25.533,24,3.033,3.033,0,0,1,28.565,27.033Z" transform="translate(-10.369 -9.847)" fill="none" stroke="#7d879c" stroke-linecap="round" stroke-linejoin="round" stroke-width="2"/><path d="M12.885,20.265l6.9,4.023" transform="translate(-7.234 -8.629)" fill="none" stroke="#7d879c" stroke-linecap="round" stroke-linejoin="round" stroke-width="2"/><path d="M19.779,9.765l-6.894,4.023" transform="translate(-7.234 -5.206)" fill="none" stroke="#7d879c" stroke-linecap="round" stroke-linejoin="round" stroke-width="2"/></g></g></svg>