<svg xmlns="http://www.w3.org/2000/svg" xmlns:xlink="http://www.w3.org/1999/xlink" width="79" height="79" viewBox="0 0 79 79"><defs><filter id="a" x="0" y="0" width="79" height="79" filterUnits="userSpaceOnUse"><feOffset dy="3" input="SourceAlpha"/><feGaussianBlur stdDeviation="5" result="b"/><feFlood flood-color="#d5d5d5" flood-opacity="0.2"/><feComposite operator="in" in2="b"/><feComposite in="SourceGraphic"/></filter></defs><g transform="translate(-412 -4558)"><g transform="matrix(1, 0, 0, 1, 412, 4558)" filter="url(#a)"><circle cx="24.5" cy="24.5" r="24.5" transform="translate(15 12)" fill="#fff"/></g><path d="M23.74,4.495a11.019,11.019,0,0,1-3.174,1.547A4.529,4.529,0,0,0,12.62,9.074v1.011a10.776,10.776,0,0,1-9.1-4.579S-.522,14.6,8.576,18.648A11.767,11.767,0,0,1,1.5,20.669c9.1,5.055,20.218,0,20.218-11.625a4.549,4.549,0,0,0-.081-.839,7.8,7.8,0,0,0,2.1-3.71Z" transform="translate(438.666 4580.707)" fill="none" stroke="#7d879c" stroke-linecap="round" stroke-linejoin="round" stroke-width="2"/></g></svg>