<svg xmlns="http://www.w3.org/2000/svg" width="27.69" height="26.5" viewBox="0 0 27.69 26.5"><g transform="translate(-0.75 -0.75)"><path d="M14.455,31.228A1.228,1.228,0,1,1,13.228,30,1.228,1.228,0,0,1,14.455,31.228Z" transform="translate(-2.193 -5.955)" fill="none" stroke="#000" stroke-linecap="round" stroke-linejoin="round" stroke-width="1.5"/><path d="M30.955,31.228A1.228,1.228,0,1,1,29.728,30,1.228,1.228,0,0,1,30.955,31.228Z" transform="translate(-5.72 -5.955)" fill="none" stroke="#000" stroke-linecap="round" stroke-linejoin="round" stroke-width="1.5"/><path d="M1.5,1.5H6.262l3.19,15.741a2.374,2.374,0,0,0,2.381,1.893H23.4a2.374,2.374,0,0,0,2.381-1.893l1.9-9.863H7.452" fill="none" stroke="#000" stroke-linecap="round" stroke-linejoin="round" stroke-width="1.5"/></g></svg>