<svg xmlns="http://www.w3.org/2000/svg" width="35" height="35" viewBox="0 0 35 35"><g transform="translate(-1062 -1991)"><rect width="35" height="35" rx="5" transform="translate(1062 1991)" fill="#fff" opacity="0.1"/><path d="M24.341,4.5H5.659A1.16,1.16,0,0,0,4.5,5.659V24.341A1.16,1.16,0,0,0,5.659,25.5H15V17.188H12.49V14.125H15V11.861a3.99,3.99,0,0,1,4.3-4.189c1.159,0,2.406.088,2.7.126V10.63H20.07c-1.318,0-1.57.623-1.57,1.542v1.952h3.139l-.41,3.063H18.5V25.5h5.841A1.16,1.16,0,0,0,25.5,24.341V5.659A1.16,1.16,0,0,0,24.341,4.5Z" transform="translate(1064.5 1993.5)" fill="#fff"/></g></svg>