<svg xmlns="http://www.w3.org/2000/svg" width="35" height="35" viewBox="0 0 35 35"><g transform="translate(-1103 -1991)"><rect width="35" height="35" rx="5" transform="translate(1103 1991)" fill="#fff" opacity="0.1"/><g transform="translate(1110 1998)"><path d="M24.937,11.625a1.313,1.313,0,1,1,1.313-1.312A1.309,1.309,0,0,1,24.937,11.625Z" transform="translate(-8.75 -5.5)" fill="#fff"/><path d="M16.5,13A3.5,3.5,0,1,1,13,16.5,3.5,3.5,0,0,1,16.5,13m0-1.75a5.25,5.25,0,1,0,5.25,5.25,5.251,5.251,0,0,0-5.25-5.25Z" transform="translate(-6 -6)" fill="#fff"/><path d="M19.375,6.25a4.388,4.388,0,0,1,4.375,4.375v8.75a4.388,4.388,0,0,1-4.375,4.375h-8.75A4.388,4.388,0,0,1,6.25,19.375v-8.75A4.388,4.388,0,0,1,10.625,6.25h8.75m0-1.75h-8.75A6.143,6.143,0,0,0,4.5,10.625v8.75A6.143,6.143,0,0,0,10.625,25.5h8.75A6.143,6.143,0,0,0,25.5,19.375v-8.75A6.143,6.143,0,0,0,19.375,4.5Z" transform="translate(-4.5 -4.5)" fill="#fff"/></g></g></svg>