<svg xmlns="http://www.w3.org/2000/svg" width="35" height="35" viewBox="0 0 35 35"><g transform="translate(-1148 -1991)"><rect width="35" height="35" rx="5" transform="translate(1148 1991)" fill="#fff" opacity="0.1"/><path d="M22.413,6.525a8.71,8.71,0,0,1-2.474.681,4.323,4.323,0,0,0,1.9-2.385A8.561,8.561,0,0,1,19.1,5.866a4.307,4.307,0,0,0-7.454,2.946,4.218,4.218,0,0,0,.111.983A12.21,12.21,0,0,1,2.873,5.288a4.317,4.317,0,0,0,1.339,5.758,4.208,4.208,0,0,1-1.958-.538v.053a4.312,4.312,0,0,0,3.458,4.228,4.337,4.337,0,0,1-1.135.151,4.064,4.064,0,0,1-.81-.08,4.315,4.315,0,0,0,4.027,2.995A8.638,8.638,0,0,1,2.441,19.7a8.733,8.733,0,0,1-1.028-.062,12.043,12.043,0,0,0,6.6,1.949A12.186,12.186,0,0,0,20.277,9.315c0-.187,0-.374-.013-.556A8.77,8.77,0,0,0,22.413,6.525Z" transform="translate(1153.587 1995.5)" fill="#fff"/></g></svg>