<svg xmlns="http://www.w3.org/2000/svg" xmlns:xlink="http://www.w3.org/1999/xlink" width="260.842" height="261.736" viewBox="0 0 260.842 261.736"><defs><linearGradient id="a" x1="0.509" y1="0.997" x2="0.509" y2="-0.003" gradientUnits="objectBoundingBox"><stop offset="0" stop-color="gray" stop-opacity="0.251"/><stop offset="0.54" stop-color="gray" stop-opacity="0.122"/><stop offset="1" stop-color="gray" stop-opacity="0.102"/></linearGradient><linearGradient id="b" x1="0.813" y1="0.841" x2="0.813" y2="-0.159" xlink:href="#a"/><linearGradient id="c" x1="1.78" y1="0.849" x2="1.78" y2="-0.151" xlink:href="#a"/><linearGradient id="d" x1="0.5" y1="1" x2="0.5" y2="0" xlink:href="#a"/><linearGradient id="f" x1="0.5" y1="0.999" x2="0.5" y2="-0.001" xlink:href="#a"/></defs><g transform="translate(-699 -241.482)"><g transform="translate(705.842 393)" fill="none" stroke="#373f50" stroke-width="4"><circle cx="8" cy="8" r="8" stroke="none"/><circle cx="8" cy="8" r="6" fill="none"/></g><g transform="translate(943.842 318)" fill="none" stroke="#f6bd60" stroke-width="4"><circle cx="8" cy="8" r="8" stroke="none"/><circle cx="8" cy="8" r="6" fill="none"/></g><circle cx="3.5" cy="3.5" r="3.5" transform="translate(714.842 422)" fill="#f6bd60"/><circle cx="3.5" cy="3.5" r="3.5" transform="translate(943.842 292)" fill="#373f50"/><path d="M4026.265,2841.2s-9.181-64.974,48.73-41.668,75.567,120.06,56.5,144.779-109.467,29.662-120.061,52.968-4.237,49.437-27.543,57.205-98.167-10.594-82.63-53.674,38.843-77.686,79.1-88.986S4026.265,2841.2,4026.265,2841.2Z" transform="translate(-3200.158 -2553)" fill="#f28482" opacity="0.15"/><rect width="137.327" height="189.741" transform="matrix(0.978, -0.21, 0.21, 0.978, 721.142, 300.296)" fill="#f28482"/><g transform="translate(724.086 275.109)" opacity="0.5"><rect width="132.686" height="183.328" transform="matrix(0.978, -0.21, 0.21, 0.978, 0, 27.836)" fill="url(#a)"/></g><rect width="129.308" height="179.277" transform="matrix(0.978, -0.21, 0.21, 0.978, 726.019, 303.911)" fill="#fafafa" opacity="0.9"/><rect width="64.148" height="15.539" transform="matrix(0.978, -0.21, 0.21, 0.978, 756.409, 289.441)" fill="url(#b)"/><path d="M445.539,91.47a9.182,9.182,0,1,0,10.684,7.1A9.075,9.075,0,0,0,445.539,91.47Zm3.039,14.172a5.3,5.3,0,1,1,3.947-6.285,5.235,5.235,0,0,1-3.947,6.285Z" transform="translate(339.043 176.403)" fill="url(#c)"/><rect width="62.797" height="14.854" transform="matrix(0.978, -0.21, 0.21, 0.978, 756.93, 288.648)" fill="#373f50"/><path d="M445.792,91.47a8.777,8.777,0,1,0,10.423,6.74,8.777,8.777,0,0,0-10.423-6.74Zm2.9,13.544A5.065,5.065,0,1,1,452.586,99,5.065,5.065,0,0,1,448.7,105.013Z" transform="translate(338.791 176.404)" fill="#373f50"/><rect width="137.327" height="189.741" transform="translate(780.46 294.458)" fill="#f28482"/><g transform="translate(782.782 297.666)" opacity="0.5"><rect width="132.686" height="183.328" transform="translate(0 0)" fill="url(#d)"/></g><rect width="129.308" height="179.277" transform="translate(784.47 299.017)" fill="#fff" opacity="0.9"/><rect width="64.148" height="15.539" transform="translate(817.219 291.243)" fill="url(#d)"/><path d="M647.288,118a9.184,9.184,0,1,0,8.968,9.182A9.077,9.077,0,0,0,647.288,118Zm0,14.48a5.3,5.3,0,1,1,5.172-5.3,5.235,5.235,0,0,1-5.172,5.273Z" transform="translate(202.005 158.075)" fill="url(#f)"/><rect width="62.797" height="14.854" transform="translate(817.895 290.577)" fill="#373f50"/><path d="M647.707,118a8.777,8.777,0,1,0,8.776,8.777A8.777,8.777,0,0,0,647.707,118Zm0,13.842a5.07,5.07,0,1,0,0-.016Z" transform="translate(201.586 158.075)" fill="#373f50"/><g transform="translate(838.537 257.72)" opacity="0.5"><rect width="1.182" height="6.703" transform="translate(2.759)" fill="#14213d"/><rect width="1.182" height="6.703" transform="translate(6.703 2.759) rotate(90)" fill="#14213d"/></g><path d="M316.023,621.241a1.449,1.449,0,0,1-.808-1.75.7.7,0,0,0,.031-.16h0a.726.726,0,0,0-1.3-.481h0a.7.7,0,0,0-.082.141,1.449,1.449,0,0,1-1.75.808.7.7,0,0,0-.16-.031h0a.726.726,0,0,0-.481,1.3h0a.692.692,0,0,0,.141.082,1.449,1.449,0,0,1,.808,1.75.7.7,0,0,0-.031.16h0a.726.726,0,0,0,1.3.481h0a.7.7,0,0,0,.082-.141,1.449,1.449,0,0,1,1.75-.808.7.7,0,0,0,.16.031h0a.726.726,0,0,0,.481-1.3h0A.7.7,0,0,0,316.023,621.241Z" transform="translate(426.346 -185.192)" fill="#ff8d01" opacity="0.5"/><ellipse cx="2.366" cy="2.366" rx="2.366" ry="2.366" transform="translate(724.438 285.631)" fill="#14213d" opacity="0.5"/><ellipse cx="2.366" cy="2.366" rx="2.366" ry="2.366" transform="translate(699.422 350.178)" fill="#14213d" opacity="0.5"/><path d="M844.433,121.921a1.449,1.449,0,0,1-.808-1.75.7.7,0,0,0,.031-.16h0a.726.726,0,0,0-1.3-.481h0a.7.7,0,0,0-.082.141,1.449,1.449,0,0,1-1.75.808.7.7,0,0,0-.16-.031h0a.726.726,0,0,0-.481,1.3h0a.7.7,0,0,0,.141.082,1.449,1.449,0,0,1,.808,1.75.7.7,0,0,0-.031.16h0a.726.726,0,0,0,1.3.481h0a.7.7,0,0,0,.082-.141,1.449,1.449,0,0,1,1.75-.808.7.7,0,0,0,.16.031h0a.726.726,0,0,0,.481-1.3h0a.694.694,0,0,0-.141-.082Z" transform="translate(63.98 157.224)" fill="#f6bd60" opacity="0.5"/><ellipse cx="2.366" cy="2.366" rx="2.366" ry="2.366" transform="translate(952.416 354.172)" fill="#ff8d01" opacity="0.5"/><ellipse cx="2.366" cy="2.366" rx="2.366" ry="2.366" transform="translate(928.116 405.316)" fill="#ff8d01" opacity="0.5"/><g transform="translate(701.461 489.327)" opacity="0.5"><rect width="1.182" height="6.703" transform="translate(2.759 0)" fill="#ffbc64"/><rect width="1.182" height="6.703" transform="translate(6.703 2.762) rotate(90)" fill="#ffbc64"/></g><path d="M950.433,826.3a1.449,1.449,0,0,1-.808-1.75.7.7,0,0,0,.031-.16h0a.726.726,0,0,0-1.3-.481h0a.7.7,0,0,0-.082.141,1.449,1.449,0,0,1-1.75.808.7.7,0,0,0-.16-.031h0a.726.726,0,0,0-.481,1.3h0a.7.7,0,0,0,.141.082,1.449,1.449,0,0,1,.808,1.75.7.7,0,0,0-.031.16h0a.726.726,0,0,0,1.3.481h0a.7.7,0,0,0,.082-.141,1.449,1.449,0,0,1,1.75-.807.7.7,0,0,0,.16.031h0a.726.726,0,0,0,.481-1.3h0A.693.693,0,0,0,950.433,826.3Z" transform="translate(-8.71 -325.815)" fill="#ffbc64" opacity="0.5"/><ellipse cx="2.366" cy="2.366" rx="2.366" ry="2.366" transform="translate(769.559 489.978)" fill="#ff8d01" opacity="0.5"/><path d="M4079.151,2955.927s30.649-22.089,36.724-7.179,39.208-.552,47.492-6.074" transform="translate(-3266.066 -2592.834)" fill="none" stroke="#14213d" stroke-linecap="round" stroke-linejoin="round" stroke-width="5" opacity="0.6"/><path d="M4123.636,3025.7s22.333-16.045,23.715-9.887-2.136,12.317,2.766,8.924,9.3-9.049,9.426-5.781,7.416-1.131,12.065-4.524" transform="translate(-3298.683 -2627.015)" fill="none" stroke="#14213d" stroke-linecap="round" stroke-linejoin="round" stroke-width="3" opacity="0.8"/></g></svg>