<svg xmlns="http://www.w3.org/2000/svg" width="60" height="60" viewBox="0 0 60 60"><g transform="translate(-2755 876)"><rect width="60" height="60" transform="translate(2755 -876)" fill="rgba(255,255,255,0)" opacity="0"/><g transform="translate(2755 -870)"><path d="M187.172,180a1.172,1.172,0,1,0,1.172,1.172A1.172,1.172,0,0,0,187.172,180Zm0,0" transform="translate(-164.203 -158.906)" fill="#F28482"/><path d="M389.375,260.344l-3.859,3.859L384,262.687a1.172,1.172,0,0,0-1.657,1.657l2.344,2.344a1.171,1.171,0,0,0,1.657,0L391.032,262a1.172,1.172,0,0,0-1.657-1.657Zm0,0" transform="translate(-337.235 -229.532)" fill="#F28482"/><path d="M58.828,24.492a2.332,2.332,0,0,1-2.342-2.265,1.172,1.172,0,0,0-1.171-1.134H52.969V3.516A3.519,3.519,0,0,0,49.453,0H3.516A3.519,3.519,0,0,0,0,3.516V33.984A3.519,3.519,0,0,0,3.516,37.5H39.429c1.886,6.686,8.683,9.508,10.02,9.508a2.423,2.423,0,0,0,.823-.221,12.77,12.77,0,0,0,8.2-6.863A13.868,13.868,0,0,0,60,33.6V25.664A1.172,1.172,0,0,0,58.828,24.492ZM2.344,9.375H50.625v4.687H2.344ZM3.516,2.344H49.453a1.173,1.173,0,0,1,1.172,1.172V7.031H2.344V3.516A1.173,1.173,0,0,1,3.516,2.344ZM2.344,33.984V16.406H50.625v4.688H43.594a1.172,1.172,0,0,0-1.172,1.172,2.347,2.347,0,0,1-2.344,2.344,1.172,1.172,0,0,0-1.172,1.172V33.6a15.243,15.243,0,0,0,.079,1.554H3.516a1.173,1.173,0,0,1-1.172-1.172ZM57.656,33.6a11.52,11.52,0,0,1-1.269,5.249,10.573,10.573,0,0,1-6.788,5.69l-.219.066a13.326,13.326,0,0,1-3.567-1.9,10.878,10.878,0,0,1-4.563-9.1V26.8a4.7,4.7,0,0,0,3.367-3.367h9.7a4.657,4.657,0,0,0,3.338,3.253Zm0,0" transform="translate(0 0)" fill="#F28482"/><path d="M60.563,240H55.172a1.172,1.172,0,0,0,0,2.344h5.391a1.172,1.172,0,0,0,0-2.344Zm0,0" transform="translate(-47.672 -211.875)" fill="#F28482"/><path d="M146.563,240h-5.391a1.172,1.172,0,0,0,0,2.344h5.391a1.172,1.172,0,1,0,0-2.344Zm0,0" transform="translate(-123.594 -211.875)" fill="#F28482"/><path d="M232.563,240h-5.391a1.172,1.172,0,0,0,0,2.344h5.391a1.172,1.172,0,0,0,0-2.344Zm0,0" transform="translate(-199.516 -211.875)" fill="#F28482"/><path d="M55.172,182.344H65.953a1.172,1.172,0,0,0,0-2.344H55.172a1.172,1.172,0,0,0,0,2.344Zm0,0" transform="translate(-47.672 -158.906)" fill="#F28482"/></g></g></svg>