<svg xmlns="http://www.w3.org/2000/svg" width="60" height="60" viewBox="0 0 60 60"><g transform="translate(22.628 25.776)"><path d="M199.718,229.106a.77.77,0,0,1-.781.781h-5.024a.788.788,0,0,1-.568-1.362l4.2-3.8a1.838,1.838,0,0,0-2.329-2.838c-.313.227-.574.636-.975.706a.791.791,0,0,1-.869-.521c-.2-.567.287-.906.652-1.235a3.352,3.352,0,0,1,2.285-.88,3.417,3.417,0,0,1,2.526,1.121,3.351,3.351,0,0,1,.88,2.285,3.417,3.417,0,0,1-1.121,2.526l-2.682,2.427h3.023A.781.781,0,0,1,199.718,229.106Z" transform="translate(-193.094 -219.952)" fill="#F28482 "/><path d="M259.446,227.3a.782.782,0,0,1-.795.781h-.142v1.079a.781.781,0,0,1-1.561,0v-1.079h-4.442a.783.783,0,0,1-.639-1.263c.181-.225,5.192-6.47,5.251-6.528a1.233,1.233,0,0,1,.171-.15.788.788,0,0,1,1.221.646v5.734h.142A.79.79,0,0,1,259.446,227.3Zm-2.5-4.286-2.824,3.506h2.824Z" transform="translate(-244.833 -220.003)" fill="#F28482 "/></g><path d="M55.316,20.595C53.176,8.561,42.053,0,30,0S6.824,8.561,4.684,20.595A5.529,5.529,0,0,0,0,26.035v2.91a.879.879,0,0,0,1.758,0v-2.91a3.775,3.775,0,0,1,3.791-3.75H7.383V40.523H5.549a3.775,3.775,0,0,1-3.791-3.75V33.4A.879.879,0,0,0,0,33.4v3.374a5.535,5.535,0,0,0,5.549,5.508H7.477c.815,3.043,5.481,2.444,5.481-.712V21.239a2.8,2.8,0,0,0-5.481-.712H6.485C8.644,9.5,18.924,1.758,30,1.758S51.356,9.5,53.515,20.527h-.991c-.815-3.043-5.481-2.444-5.481.712V41.569a2.8,2.8,0,0,0,5.481.712H53.5c-1.577,8.352-9.212,13.8-17.508,14.06a2.79,2.79,0,0,0-2.64-1.882h-6.71a2.771,2.771,0,1,0,0,5.541h6.71A2.79,2.79,0,0,0,36,58.1c9.3-.274,17.719-6.519,19.3-15.882A5.53,5.53,0,0,0,60,36.773V26.035A5.529,5.529,0,0,0,55.316,20.595Zm-46.176.645a1.031,1.031,0,0,1,2.059,0V41.569a1.031,1.031,0,0,1-2.059,0Zm24.214,37h-6.71a1.013,1.013,0,0,1,0-2.026h6.71A1.013,1.013,0,0,1,33.355,58.242Zm17.5-16.674a1.031,1.031,0,0,1-2.059,0V21.239a1.031,1.031,0,0,1,2.059,0Zm7.383-4.8a3.775,3.775,0,0,1-3.791,3.75H52.617V22.285h1.834a3.775,3.775,0,0,1,3.791,3.75Z" fill="#F28482 "/><path d="M151.209,167.356l5.285,2.329a.888.888,0,0,0,1.233-.8V163a14.3,14.3,0,0,0,.764-17.663.879.879,0,0,0-1.427,1.026,12.545,12.545,0,0,1-.869,15.718.879.879,0,0,0-.225.588v4.865l-4.365-1.923a.879.879,0,0,0-.647-.024,12.633,12.633,0,1,1,2.993-22.278.879.879,0,0,0,1-1.446,14.4,14.4,0,1,0-3.739,25.5Z" transform="translate(-116.665 -122.964)" fill="#F28482 "/></svg>