<svg xmlns="http://www.w3.org/2000/svg" width="60.3" height="60.3" viewBox="0 0 60.3 60.3"><g transform="translate(0.15 0.15)"><path d="M28.406,78.453a3.75,3.75,0,0,0-3.75,3.748,8.5,8.5,0,0,1-2.152,5.67,6.562,6.562,0,1,0-12.852,0A8.534,8.534,0,0,1,7.5,82.2a3.75,3.75,0,0,0-7.5,0A16.039,16.039,0,0,0,9.179,96.714v12.035c0,.006,0,.012,0,.018v19.29a1.172,1.172,0,0,0,2.344,0V109.939h10.6v13.433a1.172,1.172,0,0,0,2.344,0V95.9a16.157,16.157,0,0,0,2.974-2.345A15.956,15.956,0,0,0,32.156,82.2a3.753,3.753,0,0,0-3.75-3.748ZM16.078,82.322a4.217,4.217,0,1,1-4.219,4.217A4.222,4.222,0,0,1,16.078,82.322ZM25.785,91.9a13.84,13.84,0,0,1-3.058,2.306,1.171,1.171,0,0,0-.6,1.024V107.6h-10.6V95.955a1.171,1.171,0,0,0-.72-1.081A13.707,13.707,0,0,1,2.344,82.2a1.406,1.406,0,0,1,2.813,0A10.931,10.931,0,0,0,16.078,93.117h0A10.93,10.93,0,0,0,27,82.2a1.406,1.406,0,0,1,2.813,0,13.632,13.632,0,0,1-4.028,9.7Zm0,0" transform="translate(0 -69.259)" fill="#F28482" stroke="#f7f7f7" stroke-width="0.3"/><path d="M189.864,491.75a1.172,1.172,0,1,0,.829.343A1.179,1.179,0,0,0,189.864,491.75Zm0,0" transform="translate(-166.568 -434.123)" fill="#F28482" stroke="#f7f7f7" stroke-width="0.3"/><path d="M134.77,387.719a1.172,1.172,0,0,0-1.172,1.171v12.221a1.172,1.172,0,0,0,2.344,0V388.89A1.171,1.171,0,0,0,134.77,387.719Zm0,0" transform="translate(-117.934 -342.283)" fill="#F28482" stroke="#f7f7f7" stroke-width="0.3"/><path d="M265.887,215.215a3.749,3.749,0,0,0-3.75,3.748,8.5,8.5,0,0,1-2.152,5.67,6.563,6.563,0,1,0-12.852,0,8.534,8.534,0,0,1-2.152-5.67,3.75,3.75,0,0,0-7.5,0,16.04,16.04,0,0,0,.561,4.213,1.172,1.172,0,0,0,2.261-.615,13.72,13.72,0,0,1-.479-3.6,1.406,1.406,0,0,1,2.813,0,10.931,10.931,0,0,0,10.922,10.916h0a10.93,10.93,0,0,0,10.922-10.916,1.406,1.406,0,0,1,2.813,0,13.632,13.632,0,0,1-4.028,9.7,13.8,13.8,0,0,1-3.058,2.306,1.172,1.172,0,0,0-.6,1.024v12.364H249V232.717a1.171,1.171,0,0,0-.72-1.081,13.766,13.766,0,0,1-3.2-1.878,1.172,1.172,0,1,0-1.449,1.842,16.119,16.119,0,0,0,3.022,1.876v12.035c0,.006,0,.012,0,.018v3.263a1.172,1.172,0,0,0,2.344,0V246.7h10.6v2.092a1.172,1.172,0,0,0,2.344,0V232.666a16.145,16.145,0,0,0,2.974-2.345,15.957,15.957,0,0,0,4.714-11.358,3.753,3.753,0,0,0-3.75-3.748Zm-12.328,3.869a4.217,4.217,0,1,1-4.219,4.217A4.222,4.222,0,0,1,253.558,219.084Zm0,0" transform="translate(-209.636 -189.994)" fill="#F28482" stroke="#f7f7f7" stroke-width="0.3"/><path d="M261.328,308.69A1.172,1.172,0,0,0,259.386,310l.013.02a1.172,1.172,0,0,0,1.95-1.3Zm0,0" transform="translate(-228.796 -272.06)" fill="#F28482" stroke="#f7f7f7" stroke-width="0.3"/><path d="M438.946,99.909a1.171,1.171,0,0,0,1.172-1.171V97.12a1.172,1.172,0,0,0-2.344,0v1.618A1.171,1.171,0,0,0,438.946,99.909Zm0,0" transform="translate(-386.445 -84.705)" fill="#F28482" stroke="#f7f7f7" stroke-width="0.3"/><path d="M438.946,166.065a1.172,1.172,0,0,0,1.172-1.171v-1.618a1.172,1.172,0,0,0-2.344,0v1.618A1.172,1.172,0,0,0,438.946,166.065Zm0,0" transform="translate(-386.445 -143.108)" fill="#F28482" stroke="#f7f7f7" stroke-width="0.3"/><path d="M465.121,138.272h1.618a1.171,1.171,0,1,0,0-2.342h-1.618a1.171,1.171,0,1,0,0,2.342Zm0,0" transform="translate(-409.552 -120)" fill="#F28482" stroke="#f7f7f7" stroke-width="0.3"/><path d="M398.965,138.272h1.619a1.171,1.171,0,1,0,0-2.342h-1.619a1.171,1.171,0,1,0,0,2.342Zm0,0" transform="translate(-351.152 -120)" fill="#F28482" stroke="#f7f7f7" stroke-width="0.3"/><path d="M335,3.96a1.172,1.172,0,0,0,1.172-1.171V1.171a1.172,1.172,0,0,0-2.344,0V2.789A1.172,1.172,0,0,0,335,3.96Zm0,0" transform="translate(-294.687 0)" fill="#F28482" stroke="#f7f7f7" stroke-width="0.3"/><path d="M335,70.113a1.172,1.172,0,0,0,1.172-1.171V67.324a1.172,1.172,0,0,0-2.344,0v1.618A1.172,1.172,0,0,0,335,70.113Zm0,0" transform="translate(-294.687 -58.4)" fill="#F28482" stroke="#f7f7f7" stroke-width="0.3"/><path d="M361.175,42.323h1.619a1.171,1.171,0,1,0,0-2.342h-1.619a1.171,1.171,0,1,0,0,2.342Zm0,0" transform="translate(-317.794 -35.295)" fill="#F28482" stroke="#f7f7f7" stroke-width="0.3"/><path d="M295.02,42.323h1.619a1.171,1.171,0,1,0,0-2.342H295.02a1.171,1.171,0,1,0,0,2.342Zm0,0" transform="translate(-259.395 -35.295)" fill="#F28482" stroke="#f7f7f7" stroke-width="0.3"/></g></svg>