<svg xmlns="http://www.w3.org/2000/svg" width="41.092" height="25.393" viewBox="0 0 41.092 25.393"><path d="M19.421,29.9c.1.084.205.168.31.25A12.7,12.7,0,1,1,19.726,9a2.621,2.621,0,0,0-.283.257A13.657,13.657,0,0,0,19.421,29.9ZM28.395,6.876A12.632,12.632,0,0,0,21.366,9a2.621,2.621,0,0,1,.283.257A13.657,13.657,0,0,1,21.671,29.9c-.1.084-.205.168-.31.25A12.7,12.7,0,1,0,28.395,6.876ZM20.546,9.6c-.164.128-.324.257-.479.4a12.689,12.689,0,0,0,0,19.159c.154.137.317.271.479.4.164-.127.324-.26.479-.4a12.689,12.689,0,0,0,0-19.159C20.871,9.857,20.71,9.727,20.546,9.6Z" transform="translate(0 -6.876)" fill="#4b566b"/></svg>