<svg xmlns="http://www.w3.org/2000/svg" width="58.727" height="18" viewBox="0 0 58.727 18"><path d="M42.687,13.22a12.213,12.213,0,0,0-4.258-.737c-4.7,0-8.014,2.369-8.038,5.763-.029,2.5,2.359,3.9,4.162,4.737,1.852.856,2.471,1.395,2.467,2.166-.012,1.167-1.48,1.7-2.843,1.7a10.059,10.059,0,0,1-4.48-.918l-.585-.272-.663,3.91a15.9,15.9,0,0,0,5.322.918c4.994,0,8.259-2.352,8.3-5.968.039-1.989-1.248-3.5-3.967-4.742-1.649-.808-2.677-1.348-2.677-2.168,0-.724.878-1.5,2.714-1.5a8.711,8.711,0,0,1,3.56.668l.44.2L42.8,13.2l-.115.024ZM54.881,12.8H51.21a2.375,2.375,0,0,0-2.5,1.446l-7.06,15.989h4.994l1-2.618,6.093,0c.149.612.587,2.613.587,2.613h4.4L54.881,12.8Zm-31.243-.147h4.754L25.419,30.1H20.662l2.976-17.449ZM11.552,22.271l.494,2.423L16.7,12.8h5.038l-7.49,17.41H9.22L5.109,15.468a.974.974,0,0,0-.44-.58A20.093,20.093,0,0,0,0,13.158l.061-.367H7.723a1.991,1.991,0,0,1,2.161,1.478l1.669,8.009v-.007ZM49.01,24.05l1.9-4.879c-.024.049.392-1.008.631-1.664l.325,1.5,1.1,5.033H49.01v0Z" transform="translate(0 -12.483)" fill="#4b566b"/></svg>