<svg xmlns="http://www.w3.org/2000/svg" width="26.5" height="25.614" viewBox="0 0 26.5 25.614"><g transform="translate(-74.25 -299)"><rect width="25" height="25" transform="translate(75 299)" fill="#631a1a" opacity="0"/><g transform="translate(73.5 298.5)"><path d="M14.344,31.172A1.172,1.172,0,1,1,13.172,30,1.172,1.172,0,0,1,14.344,31.172Z" transform="translate(-2.57 -6.98)" fill="none" stroke="#373f50" stroke-linecap="round" stroke-linejoin="round" stroke-width="1.5"/><path d="M30.844,31.172A1.172,1.172,0,1,1,29.672,30,1.172,1.172,0,0,1,30.844,31.172Z" transform="translate(-6.688 -6.98)" fill="none" stroke="#373f50" stroke-linecap="round" stroke-linejoin="round" stroke-width="1.5"/><path d="M1.5,1.5H6.045L9.091,16.526a2.266,2.266,0,0,0,2.273,1.807H22.409a2.266,2.266,0,0,0,2.273-1.807L26.5,7.111H7.182" fill="none" stroke="#373f50" stroke-linecap="round" stroke-linejoin="round" stroke-width="1.5"/></g></g></svg>