<svg xmlns="http://www.w3.org/2000/svg" width="191.02" height="163.835" viewBox="0 0 191.02 163.835"><g transform="translate(-560 -944.674)"><path d="M423.556,73.528c8.434-7.241,26.417-1.919,31.237-11.557s-5.96-34.36,26.787-35.287,81.1,63.466,51.13,96.212-73.411-11.629-80.238,14.878-52.357,68.022-80.291,46.989-2.533-55.144,19.154-69.2S415.122,80.769,423.556,73.528Z" transform="translate(208.903 918)" fill="#ff8d01" opacity="0.1"/><path d="M136.189,42.91v71.782a5.33,5.33,0,0,1-5.33,5.33H120.613l-8.272,11.991a6.225,6.225,0,0,1-10.276-.037L93.933,120.03H8.6a5.33,5.33,0,0,1-5.33-5.33V42.91A5.33,5.33,0,0,1,8.6,37.58H130.859a5.33,5.33,0,0,1,5.33,5.33Z" transform="translate(579.847 959.551)" fill="#ff8d01"/><path d="M54.957,77.775H30.147a2.417,2.417,0,0,1,0-4.835h24.81a2.417,2.417,0,0,1,0,4.835Z" transform="translate(573.469 950.332)" fill="#212a54"/><path d="M71.45,91.9h-41.3a2.417,2.417,0,0,1,0-4.835H71.472a2.417,2.417,0,0,1,0,4.835Z" transform="translate(573.469 946.647)" fill="#212a54"/><path d="M71.45,106.035h-41.3a2.417,2.417,0,1,1,0-4.835H71.472a2.417,2.417,0,0,1,0,4.835Z" transform="translate(573.469 942.963)" fill="#212a54"/><rect width="131.892" height="5.751" transform="translate(584.181 998.965)" fill="#fff0dd" opacity="0.5"/><path d="M106.372,136.262h0a8.635,8.635,0,0,1-7.119-3.792L91.861,121.58H7.747A7.755,7.755,0,0,1,0,113.832V42.057A7.755,7.755,0,0,1,7.747,34.31H130.007a7.755,7.755,0,0,1,7.747,7.747V58.173a2.417,2.417,0,1,1-4.835,0V42.057a2.913,2.913,0,0,0-2.913-2.913H7.747a2.913,2.913,0,0,0-2.913,2.913V113.84a2.913,2.913,0,0,0,2.913,2.913H94.4l8.827,13.011a3.756,3.756,0,0,0,3.134,1.671h0a3.755,3.755,0,0,0,3.134-1.649l8.989-13.033h11.51a2.913,2.913,0,0,0,2.913-2.913V88.587a2.417,2.417,0,1,1,4.835,0v25.246a7.755,7.755,0,0,1-7.747,7.747h-8.96l-7.548,10.941A8.635,8.635,0,0,1,106.372,136.262Z" transform="translate(580.699 960.404)" fill="#212a54"/><ellipse cx="26.273" cy="26.318" rx="26.273" ry="26.318" transform="translate(654.404 977.984)" fill="#212a54" opacity="0.45"/><circle cx="26.318" cy="26.318" r="26.318" transform="translate(654.566 971.398)" fill="#fff"/><path d="M153.135,35.141A26.318,26.318,0,1,1,101.86,26.78c2.159,12.161,13.344,23.072,24.958,23.072s22.178-8.8,24.958-23.1A26.177,26.177,0,0,1,153.135,35.141Z" transform="translate(554.496 962.375)" fill="#212a54" opacity="0.1"/><path d="M152.825,36.34a26.318,26.318,0,1,1-52.635,0,26.619,26.619,0,0,1,.222-3.432,26.318,26.318,0,0,0,52.184,0A26.614,26.614,0,0,1,152.825,36.34Z" transform="translate(554.576 960.769)" fill="#212a54" opacity="0.2"/><path d="M124.715,57.47A28.735,28.735,0,1,1,153.45,28.735,28.735,28.735,0,0,1,124.715,57.47Zm0-52.635a23.9,23.9,0,1,0,23.9,23.9,23.9,23.9,0,0,0-23.9-23.9Z" transform="translate(555.689 969.35)" fill="#212a54"/><g transform="translate(589.319 1007)" opacity="0.7"><path d="M13.471,73.9a1.811,1.811,0,0,1-1.811-1.811V65.361a1.811,1.811,0,0,1,3.622,0V72.1A1.811,1.811,0,0,1,13.471,73.9Z" transform="translate(-11.66 -54.221)" fill="#fff0dd"/><path d="M13.471,58.2a1.811,1.811,0,0,1-1.811-1.811V52.741a1.811,1.811,0,1,1,3.622,0v3.652A1.811,1.811,0,0,1,13.471,58.2Z" transform="translate(-11.66 -50.93)" fill="#fff0dd"/></g><circle cx="2.129" cy="2.129" r="2.129" transform="translate(588.979 1030.302)" fill="#fff0dd" opacity="0.7"/><path d="M182.227,94.5a2.417,2.417,0,0,1-2.417-2.417V87.647a2.417,2.417,0,1,1,4.835,0v4.436A2.417,2.417,0,0,1,182.227,94.5Z" transform="translate(533.816 947.127)" fill="#212a54"/><path d="M182.227,79.65a2.417,2.417,0,0,1-2.417-2.417v-.185a2.417,2.417,0,1,1,4.835,0v.185A2.417,2.417,0,0,1,182.227,79.65Z" transform="translate(533.816 949.891)" fill="#212a54"/><text transform="translate(680 1010)" fill="#212a54" font-size="35" font-family="Nunito-Bold, Nunito" font-weight="700"><tspan x="-8.033" y="0">?</tspan></text><g transform="translate(560 993)" fill="none" stroke="#212a54" stroke-width="4"><circle cx="6" cy="6" r="6" stroke="none"/><circle cx="6" cy="6" r="4" fill="none"/></g><g transform="translate(730 1032)" fill="none" stroke="#ff8d01" stroke-width="4"><circle cx="6" cy="6" r="6" stroke="none"/><circle cx="6" cy="6" r="4" fill="none"/></g><circle cx="2.5" cy="2.5" r="2.5" transform="translate(560 978)" fill="#ff8d01"/><circle cx="2.5" cy="2.5" r="2.5" transform="translate(730 1013)" fill="#212a54"/></g></svg>